<svg width="31" height="35" viewBox="0 0 31 35" fill="none" xmlns="http://www.w3.org/2000/svg">
<path d="M0.681718 0.881258C0.251993 1.39538 0.0351137 2.05436 0.075506 2.72321V31.7188C0.0270456 32.3958 0.244527 33.065 0.681718 33.5841L0.779644 33.682L17.0215 17.4122V17.0298L0.779644 0.787994L0.681718 0.881258Z" fill="url(#paint0_linear)"/>
<path d="M22.4354 22.8308L17.0215 17.4122V17.0298L22.4354 11.6159L22.5567 11.6859L28.9732 15.3278C30.8058 16.3723 30.8058 18.0744 28.9732 19.1143L22.5567 22.7609L22.4354 22.8308Z" fill="url(#paint1_linear)"/>
<path d="M22.5567 22.7609L17.0215 17.221L0.700439 33.5421C1.30199 34.181 2.29991 34.2602 3.42373 33.626L22.5754 22.7422" fill="url(#paint2_linear)"/>
<path d="M22.5567 11.6858L3.40505 0.801985C2.28123 0.16313 1.28331 0.242405 0.681763 0.88126L17.0029 17.2024L22.5567 11.6858Z" fill="url(#paint3_linear)"/>
<defs>
<linearGradient id="paint0_linear" x1="15.5806" y1="2.41544" x2="-6.42496" y2="24.4209" gradientUnits="userSpaceOnUse">
<stop stop-color="#00A0FF"/>
<stop offset="0.01" stop-color="#00A1FF"/>
<stop offset="0.26" stop-color="#00BEFF"/>
<stop offset="0.51" stop-color="#00D2FF"/>
<stop offset="0.76" stop-color="#00DFFF"/>
<stop offset="1" stop-color="#00E3FF"/>
</linearGradient>
<linearGradient id="paint1_linear" x1="31.3607" y1="17.221" x2="-0.36748" y2="17.221" gradientUnits="userSpaceOnUse">
<stop stop-color="#FFE000"/>
<stop offset="0.41" stop-color="#FFBD00"/>
<stop offset="0.78" stop-color="#FFA500"/>
<stop offset="1" stop-color="#FF9C00"/>
</linearGradient>
<linearGradient id="paint2_linear" x1="19.549" y1="20.2288" x2="-10.2907" y2="50.0684" gradientUnits="userSpaceOnUse">
<stop stop-color="#FF3A44"/>
<stop offset="1" stop-color="#C31162"/>
</linearGradient>
<linearGradient id="paint3_linear" x1="-3.43582" y1="-8.77151" x2="9.89153" y2="4.55118" gradientUnits="userSpaceOnUse">
<stop stop-color="#32A071"/>
<stop offset="0.07" stop-color="#2DA771"/>
<stop offset="0.48" stop-color="#15CF74"/>
<stop offset="0.8" stop-color="#06E775"/>
<stop offset="1" stop-color="#00F076"/>
</linearGradient>
</defs>
</svg>
